<svg id="_1" data-name="1" xmlns="http://www.w3.org/2000/svg" viewBox="0 0 378.96 524.96"><defs><style>.cls-1{fill:#151d38;}.cls-2{fill:#fff;}.cls-3{fill:#ccd6da;}.cls-4{fill:#d3b18f;}.cls-5{fill:#acdcf6;}</style></defs><title>merlin</title><path class="cls-1" d="M376.06,519.7h-15.2c-2.2,0-4.3-.1-6.5,0-1.1,0-1.7-.3-1.6-1.5s-.1-2.5,0-3.8a6.7,6.7,0,0,0-2-5.3,34.43,34.43,0,0,1,.9-46.3,3.41,3.41,0,0,0,1.1-2.5,74.48,74.48,0,0,0-.1-8.2,2.32,2.32,0,0,1,1.6-2.7c14.7-7.5,22.7-22.6,19.9-38.8-2.4-14.1-10.6-23.9-24.1-28.5-13.8-4.7-26.4-1.8-37.2,8A34.9,34.9,0,0,0,306,399c-.8,1.4-.8,1.4-2.3.6-.4-.2-.7-.4-1.1-.6-9-4.3-18-4.2-27,.2-2.4,1.2-2.3,1.2-3.7-1-8.3-13.3-20.3-19.5-35.8-18-16.4,1.6-29.3,14.3-31.9,30.8a2.56,2.56,0,0,1-2.2,2.4c-6.9,1.6-13.7,3.4-20.5,5.1-2.1.5-4.1,1-6.1,1.5a.82.82,0,0,1-.7,0c-.2-.3.2-.5.4-.7a17.88,17.88,0,0,1,1.4-1.3l17.3-15.2c1.6-1.5,1.6-1.9.2-3.6s-3.1-3.5-4.6-5.3a4.7,4.7,0,0,0-3.1-1.6c-14-1.9-23.8-9.5-29-22.7a31.35,31.35,0,0,1-2.1-12.5c0-1,.2-2-.5-2.8-1.9-2.3-3.8-4.5-5.8-6.7a1.72,1.72,0,0,0-2.4-.1,6.89,6.89,0,0,0-1.3,1.1Q81.11,404.7,17,460.8a28,28,0,0,0-2.8,39.8c3,3.5,6.1,7,9.1,10.5a33.29,33.29,0,0,0,8.4,7.5c.3.1.7.3.6.6-.1.6-.7.3-1,.3h-1.4l-28.51-.09-.06,3.29H375.06a7.17,7.17,0,0,0,3.58-.43l.32-1.77C378.11,519.58,377.15,519.7,376.06,519.7Zm-244.5-.3H60.46a.52.52,0,0,1-.4-.2c-.2-.3,0-.4.2-.6,16.9-13.4,32.6-28.3,49-42.3,3.1-2.6,6.1-5.3,9.2-8,.2-.2.5-.7.9-.4.1.1,0,.6-.1.9a29.84,29.84,0,0,0-1.5,11.1c.1,4.8,0,9.6,0,14.4.1,10,4.4,17.8,12.6,23.5.5.3.9.6,1.4.9.1.1.3.3.3.4C132.06,519.4,131.76,519.4,131.56,519.4Zm20.9-69.6h-2.2c-3.3,0-6.7-.2-10,.5-.3.1-.8.2-.9,0s.2-.5.4-.7c4.3-3.8,8.5-7.5,12.8-11.2.3-.2.5-.6,1-.4s.3.7.3,1.1v4.8a32,32,0,0,0,.1,4.4C154.06,449.5,153.56,449.9,152.46,449.8Zm72,.1h-30.2c-9.5,0-18.9,0-28.2.1h-1.7a1,1,0,0,1-1.1-1.1V434c-.1-1.4,1.1-1.4,1.9-1.6,6.3-1.7,12.7-3.3,19-4.9s12.4-3.1,18.6-4.7a9.36,9.36,0,0,1,1.6-.4c.6-.2.9,0,1,.6s.3,1.1.4,1.6a35.9,35.9,0,0,0,17.9,24c.3.2.7.4,1,.6a.54.54,0,0,1,.3.4C225,449.9,224.66,449.9,224.46,449.9Zm61-20c0,6.2,0,12.3.1,18.5,0,1.2-.2,1.5-1.4,1.5h-13.4c-4.6,0-9.1,0-13.8-.1-.2,0-.7.2-.7-.3,0-.2.3-.4.5-.5a35.24,35.24,0,0,0,8.6-6.1c8.8-8.6,12.7-19,11-31.3a3.15,3.15,0,0,1,1.6-3.5,20.13,20.13,0,0,1,22.2.1,2.59,2.59,0,0,1,1.4,3.1,31.27,31.27,0,0,0-.3,8.1c.1,2.1.4,2.2-2.2,2.8-3.1.7-6.2,1.4-9.3,2.2S285.46,426.7,285.46,429.9Zm35.6,20h-12.5c-3.9,0-7.9,0-11.8.1-2.1,0-1.9-.3-1.9-1.8V435c0-2.2,0-2.2,2.1-2.7,1.7-.5,3.6-.7,5.3-1.3,1.4-.5,1.9,0,2.5,1.2a36.12,36.12,0,0,0,11.6,13.8,24.78,24.78,0,0,0,4.9,3c.3.1.7.2.6.6S321.36,449.9,321.06,449.9Z"/><path class="cls-2" d="M138.87,235.89s-4.05,20.09-16.74,22.66A31.64,31.64,0,0,1,139.49,280c3-15.91,17.24-21.33,17.24-21.33S147.1,258.65,138.87,235.89Z"/><path class="cls-2" d="M259,285.69s-2.43,9.4-7.58,10.8c2.24,1.67,7.14,6.2,7.69,11.53,1.24-4,4.4-10,8-11.16A56.37,56.37,0,0,1,259,285.69Z"/><path class="cls-2" d="M183.27,182s-2.42,9.39-7.58,10.79c2.25,1.67,7.15,6.2,7.7,11.53,1.23-4,4.4-10,8-11.16A56.76,56.76,0,0,1,183.27,182Z"/><path class="cls-2" d="M84.5,9.61S82.07,19,76.92,20.4c2.24,1.67,7.14,6.2,7.69,11.53,1.24-4,4.4-10,8-11.16A56.47,56.47,0,0,1,84.5,9.61Z"/><path class="cls-3" d="M163.46,429.2c.6.3,1.3,0,1.9-.1,7.1-1.8,14.2-3.6,21.4-5.5,6.1-1.6,12.2-3.1,18.4-4.6,2.2-.6,2.7-.2,3,2a26.78,26.78,0,0,0,1.1,4.9c5.1,17.1,21.9,27.1,39.1,23,18.5-4.3,28.4-22.9,24.9-38.4a3.32,3.32,0,0,1,1.3-3.7,23.29,23.29,0,0,1,28.9,0,3.12,3.12,0,0,1,1.4,3.5,29,29,0,0,0-.2,11c2.4,16,16.3,28.4,32.5,28.6,21.7.3,37.1-19,33.9-38.4-2.2-13.2-9.7-22.4-22.2-26.8s-24.1-1.6-34,7.3a33.74,33.74,0,0,0-7.5,10.4c-.9,1.8-1.4,2-3.1.9a8.34,8.34,0,0,1-1.2-.8c-8.4-4.9-17.1-5.3-25.9-1.1-1.2.6-2.3,1.4-3.5,2.1s-2,.6-2.7-.7c-.2-.4-.4-.9-.6-1.3-7.7-15.7-26.4-23.1-42.5-16.4-12.1,5-19,14.2-20.9,27.1-.4,2.8-.4,2.8-3,3.5-10.9,2.8-21.8,5.6-32.8,8.3-3.6.7-5.7,2.9-7.7,5.2-.2.2-.1-.2-.1.1v.2C163.56,429.5,163.56,429.4,163.46,429.2Z"/><path class="cls-2" d="M245.36,510.1H346c1.2-.1,1.3-.3.7-1.2a9.06,9.06,0,0,1-1.1-1.6,37.27,37.27,0,0,1-5.4-30.4c.6-2.6.7-2.6-2.1-2.6h-55.9c-1.4-.1-2.1-.6-2-1.5.1-1.3,1-1.5,2.1-1.5h58.3a2,2,0,0,0,2.2-1.4,31.65,31.65,0,0,1,3.3-5.6c.4-.6,1.3-1.1,1-1.8s-1.4-.3-2.2-.4H148.16a28.1,28.1,0,0,0-2.9.1,15.73,15.73,0,0,0-14.8,13.9c-.3,2.1-.1,4.2-.2,6.2,0,2.4,0,2.4,2.4,2.4H210a1.5,1.5,0,0,1,1.7,1.3c.1,1.1-.7,1.5-1.6,1.7a19.27,19.27,0,0,1-2.4.1h-76c-.9,0-1.3.4-1.3,1.3,0,2-.1,4,0,6a16.05,16.05,0,0,0,7.9,13,17.41,17.41,0,0,0,9.2,2.2C179.86,510.1,212.66,510.1,245.36,510.1Z"/><path class="cls-2" d="M19.46,481.8a15.37,15.37,0,0,0,3.8,10.4c1.1,1.3,2.2,2.5,3.3,3.8s1.2,1.4,2.6.2c.2-.2.4-.3.5-.5q35.55-31.05,71-62.1a10,10,0,0,0,1.1-1c.7-.6,1.6-.9,2.3-.1s.5,1.6-.2,2.3a16.61,16.61,0,0,1-1.4,1.3c-19.9,17.5-39.9,34.9-59.8,52.3-3.9,3.4-7.8,6.9-11.7,10.3-.8.7-1,1.3-.2,2.1,1.4,1.5,2.7,3.2,4.2,4.6a15.25,15.25,0,0,0,12.6,4.6c3.8-.3,6.9-2.1,9.8-4.6q38-33.15,75.8-66.4c16.1-14.1,32.3-28.2,48.4-42.4.5-.5,1.5-.9,1.4-1.5-.2-.9-1.3-.6-2-.8a37,37,0,0,1-17.8-9.9,34.53,34.53,0,0,1-7.5-10.7c-.5-1.1-1-1.1-1.7-.3-.3.3-.6.5-.9.8q-34.35,30-68.6,60L82,436.4c-.8.7-1.7,1.1-2.6.3-.7-.6-.3-1.7.7-2.7a1.38,1.38,0,0,1,.4-.3c18.1-15.9,36.2-31.7,54.3-47.6,5.9-5.2,11.8-10.4,17.7-15.5a2.85,2.85,0,0,0,1-3.3,18.62,18.62,0,0,1-.9-4.7c-.1-1.1-.4-2.2-.5-3.3-1.3.2-1.9,1.3-2.8,2.1q-47.4,41.4-94.8,82.9c-9.8,8.5-19.5,17.1-29.3,25.6A16,16,0,0,0,19.46,481.8Z"/><path class="cls-4" d="M246.26,519.4h100.5c2.7,0,2.6.3,2.6-2.6v-.5c-.1-3.6.5-3.2-3.2-3.2H145.46A18.78,18.78,0,0,1,127,494.3c0-5.6-.1-11.2,0-16.8a18,18,0,0,1,6.6-13.9c3.9-3.4,8.5-4.6,13.5-4.6h199.2c3.4,0,3,.4,3-3.1s.3-3.1-3.3-3.1H146.76a34,34,0,0,0-4.5.3,25.1,25.1,0,0,0-21.6,24.4v17a27.76,27.76,0,0,0,.7,5.7A25.18,25.18,0,0,0,146,519.3Q196.21,519.45,246.26,519.4Z"/><path class="cls-4" d="M10.16,482.2a24.09,24.09,0,0,0,5.9,15.9c3.8,4.5,7.6,9.1,11.7,13.3A23.85,23.85,0,0,0,49,519.1a25.73,25.73,0,0,0,14.3-6.7l125.1-109.5c2.7-2.4,2.7-2.4.3-5.2-2-2.2-1.5-2-3.6-.2q-55,48.15-109.9,96.2l-16.6,14.5a18.47,18.47,0,0,1-16.1,4.4,18.81,18.81,0,0,1-10.9-6.4c-3.3-3.8-6.5-7.7-10-11.4a19.16,19.16,0,0,1,1.7-27.6c5.9-4.9,11.6-10.1,17.3-15.1Q95,404.55,149.46,356.9c2.4-2.1,2.1-1.6.2-3.8-.7-.8-1.3-2.2-2.3-2.3s-1.8,1.2-2.6,1.9Q81.91,407.6,19.16,462.6A26.46,26.46,0,0,0,10.16,482.2Z"/><path class="cls-3" d="M288.56,438.7v8.4c0,1.9.6,2.7,1.6,2.7s1.5-.8,1.6-2.7V433.2c0-2.6.2-2.8,2.6-3.4s4.7-1.1,7-1.7c.5-.1,1.2-.1,1.3-.8a1.92,1.92,0,0,0-2.3-2.3c-3.2.7-6.4,1.5-9.6,2.3-2,.5-2.3.8-2.3,3C288.56,433.1,288.56,435.9,288.56,438.7Z"/><path class="cls-3" d="M160.16,440.7V433c0-.4-.1-.8-.7-.6a4.68,4.68,0,0,0-2.7,3.9v10.8a2.78,2.78,0,0,0,.3,1.8,1.8,1.8,0,0,0,1.6.9,1.6,1.6,0,0,0,1.4-1.2,6.6,6.6,0,0,0,.1-1.4Z"/><path class="cls-1" d="M165.36,258.6a1.37,1.37,0,0,1-1.5,1.3l-3.3.3c-7.8.7-13.2,4.8-16.2,12a42,42,0,0,0-2.9,12.6c-.3,3.3-.5,6.5-.5,9.8v1.2a1.43,1.43,0,0,1-1.5,1.3,1.3,1.3,0,0,1-1.3-1.2,23.48,23.48,0,0,1-.1-2.6c-.2-6.2-.5-12.3-2.4-18.2-3.1-9.8-8.8-14.3-19-15a9.7,9.7,0,0,1-1.7-.1,1.39,1.39,0,0,1-1.3-1.2,1.29,1.29,0,0,1,1.2-1.5c.8-.1,1.6-.1,2.4-.2,8.4-.5,14.3-4.5,17.5-12.3a44.66,44.66,0,0,0,2.9-13.5,87,87,0,0,0,.4-8.9v-.7c.1-.9.5-1.5,1.5-1.5a1.24,1.24,0,0,1,1.3,1.4v1.7a75.33,75.33,0,0,0,1.9,17.1,28.71,28.71,0,0,0,3,7.5c3.5,6,8.9,8.7,15.6,9.2a21.12,21.12,0,0,1,2.6.2A1.16,1.16,0,0,1,165.36,258.6Zm-11.8-.1a.31.31,0,0,1-.1-.2,10.91,10.91,0,0,0-1.1-.6,21,21,0,0,1-8.8-7.9,39.24,39.24,0,0,1-3.4-7.9c-.2-.6,0-1.6-.7-1.6s-.5,1-.7,1.6c-2,7.1-5.6,12.9-12.6,16-.1,0-.1.1-.2.1-.8.4-.7.7.1,1.1,6.7,2.9,10.3,8.3,12.4,15a12.24,12.24,0,0,0,.9,2.7c1.1-.6.9-1.8,1.1-2.7,2.1-6.6,5.7-12,12.2-14.9l.6-.3C153.46,258.7,153.46,258.6,153.56,258.5Z"/><path class="cls-1" d="M259.36,273.9a1.39,1.39,0,0,1,1.3,1.2c.1,1.2.2,2.4.2,3.6a32.2,32.2,0,0,0,1.5,9.2c1.6,4.6,4.9,7.1,9.8,7.5a9.7,9.7,0,0,1,1.7.1,1.39,1.39,0,0,1,1.1,1.4,1.23,1.23,0,0,1-1.2,1.3l-2.6.3c-4.4.5-7.2,3.1-8.7,7.2a28.7,28.7,0,0,0-1.6,9.2c0,1.2-.1,2.4-.2,3.6a1.3,1.3,0,0,1-1.2,1.3,1.38,1.38,0,0,1-1.6-1.2,14.77,14.77,0,0,1-.1-2.1,34.06,34.06,0,0,0-1-9c-1.5-5.7-4.5-8.6-10.3-9.1-.5,0-1-.1-1.4-.1a1.39,1.39,0,0,1-1.3-1.2,1.44,1.44,0,0,1,1.2-1.6,9.15,9.15,0,0,1,1.7-.1,10.39,10.39,0,0,0,9.6-7.4,32.89,32.89,0,0,0,1.6-10.8,5,5,0,0,1,.2-2.1A1.18,1.18,0,0,1,259.36,273.9Zm6.4,23.1a4.23,4.23,0,0,0-.5-.7,13.77,13.77,0,0,1-5.6-7c-.1-.2-.3-.4-.4-.6-.2.2-.5.4-.6.7a14,14,0,0,1-5.4,6.8c-.8.5-.4.9.2,1.2a12.84,12.84,0,0,1,5.2,6.7c.1.3.4.5.5.8a1.79,1.79,0,0,0,.5-.7,13.44,13.44,0,0,1,5.4-6.8A4.35,4.35,0,0,0,265.76,297Z"/><path class="cls-1" d="M199.16,193.2a1.22,1.22,0,0,1-1.1,1.3l-2.6.3a9.74,9.74,0,0,0-8.4,6.5,31.83,31.83,0,0,0-1.9,11,19.27,19.27,0,0,1-.1,2.4,1.34,1.34,0,0,1-1.4,1.3c-.9,0-1.3-.5-1.3-1.4-.1-2.1-.3-4.1-.4-6.2a20.63,20.63,0,0,0-1.8-7.4,9.67,9.67,0,0,0-8.4-6.2c-.7-.1-1.4-.1-2.1-.2-.9-.1-1.6-.5-1.5-1.5s.8-1.3,1.6-1.4h1c5-.2,8.3-2.8,10-7.6a35.08,35.08,0,0,0,1.5-9.7,28.1,28.1,0,0,0,.1-2.9,1.23,1.23,0,0,1,1.1-1.3,1.44,1.44,0,0,1,1.6,1.1,7.41,7.41,0,0,1,.1,2.1,32,32,0,0,0,1.3,9.7c1.7,5.6,4.7,8,10.5,8.5C198.56,191.8,199.16,192.2,199.16,193.2Zm-9.1.1c-.1-.2-.2-.5-.4-.6a14.2,14.2,0,0,1-5.7-7.1c-.3-.7-.6-.5-.9.1a13.28,13.28,0,0,1-5.6,7c-.5.3-.6.7,0,1a14.4,14.4,0,0,1,5.5,6.7c.1.3.3.7.5.7.5,0,.6-.5.7-.9a13.75,13.75,0,0,1,5.3-6.6C189.66,193.7,189.86,193.5,190.06,193.3Z"/><path class="cls-1" d="M98.56,20.4c-.2.7-.5,1.2-1.2,1.3a14.92,14.92,0,0,1-2.1.2c-4.1.5-6.6,2.9-7.9,6.7a30.15,30.15,0,0,0-1.3,9,14.77,14.77,0,0,1-.1,2.1,1.32,1.32,0,0,1-2.6,0,24.62,24.62,0,0,1-.2-2.6,25.73,25.73,0,0,0-1-7.3c-1.3-5-3.9-7.3-9-7.9a7.08,7.08,0,0,0-1.4-.1,1.22,1.22,0,0,1-1.1-1.3,1.39,1.39,0,0,1,1.1-1.4,9.15,9.15,0,0,1,1.7-.1,8.89,8.89,0,0,0,8.3-6.3,27.27,27.27,0,0,0,1.5-8.9,21.75,21.75,0,0,1,.1-2.6A1.3,1.3,0,0,1,84.66,0a1.43,1.43,0,0,1,1.5,1.3c.2,1.7.2,3.5.3,5.3a21.39,21.39,0,0,0,1.1,5.6c1.4,4.3,4.3,6.6,8.8,6.9a6.15,6.15,0,0,1,1.4.1C98.16,19.2,98.46,19.7,98.56,20.4Zm-14,6.6c.1-.2.3-.3.3-.4a12.85,12.85,0,0,1,4.6-5.7c.6-.4.4-.8-.1-1.1A12.43,12.43,0,0,1,85,14.3c-.3-.7-.7-.6-.9-.1a12.21,12.21,0,0,1-4.6,5.7c-.4.2-.4.6,0,1a12.33,12.33,0,0,1,4.6,5.7C84.06,26.7,84.36,26.8,84.56,27Z"/><path class="cls-1" d="M221.16,496.2h54.4a19.27,19.27,0,0,1,2.4.1,1.37,1.37,0,0,1,1.3,1.5,1.43,1.43,0,0,1-1.3,1.5,9.15,9.15,0,0,1-1.7.1H165.66a6.08,6.08,0,0,1-1.9-.1,1.47,1.47,0,0,1,0-2.9,19.27,19.27,0,0,1,2.4-.1C184.56,496.2,202.86,496.2,221.16,496.2Z"/><path class="cls-1" d="M202.86,474.3h-34.8a8.13,8.13,0,0,1-2.2-.1,1.29,1.29,0,0,1-1.2-1.5,1.39,1.39,0,0,1,1.2-1.3,12.1,12.1,0,0,1,1.9-.1h70.3a12.1,12.1,0,0,1,1.9.1,1.3,1.3,0,0,1,1.2,1.3,1.44,1.44,0,0,1-1.2,1.6,15.48,15.48,0,0,1-2.2.1C226.16,474.3,214.46,474.3,202.86,474.3Z"/><path class="cls-1" d="M295.26,484.7H318c.8.1,1.4.5,1.4,1.3s-.5,1.3-1.2,1.5a6.6,6.6,0,0,1-1.4.1h-43.3a4.14,4.14,0,0,1-1.6-.2,1.36,1.36,0,0,1-1.1-1.6,1.39,1.39,0,0,1,1.3-1.2H274C281.06,484.7,288.16,484.7,295.26,484.7Z"/><path class="cls-1" d="M81.56,469.5c-1.5,0-2.3-1.1-1.7-2.1a7.11,7.11,0,0,1,1.5-1.5c19.1-16.7,38.1-33.4,57.2-50.1,2.7-2.4,5.4-4.7,8.1-7.1a6.89,6.89,0,0,1,1.3-1.1,1.39,1.39,0,0,1,2.1.3,1.3,1.3,0,0,1-.2,1.9,8.64,8.64,0,0,1-1.4,1.3l-64.9,56.8C82.86,468.6,82.26,469.4,81.56,469.5Z"/><path class="cls-1" d="M147.16,396.4c-.1.9-.8,1.3-1.4,1.9-3.7,3.2-7.3,6.4-11,9.6-6.9,6-13.8,12.1-20.7,18.2a8.78,8.78,0,0,1-1.5,1.2c-1.1.8-2,.8-2.5.1-.7-1-.2-1.8.6-2.5.2-.2.4-.3.5-.5,10.8-9.5,21.6-18.9,32.5-28.4a4.12,4.12,0,0,1,1.3-1A1.56,1.56,0,0,1,147.16,396.4Z"/><path class="cls-1" d="M65.26,450c.1,1.1-.7,1.5-1.4,2.1-4.9,4.3-9.9,8.6-14.8,12.9l-9.7,8.5c-1.5,1.3-2.3,1.5-3,.6s-.4-1.5,1-2.8c8.2-7.2,16.5-14.4,24.7-21.6a2.63,2.63,0,0,1,1.4-.9A1.31,1.31,0,0,1,65.26,450Z"/><path class="cls-1" d="M337.66,446.6c-16.8.1-30.4-14.2-30.3-30.7a30.35,30.35,0,0,1,60.7.5A30.22,30.22,0,0,1,337.66,446.6Z"/><path class="cls-5" d="M310.46,415.7v2.6c0,.7.4,1,1.1.9l1.4-.3c15.9-3.8,31.9-7.6,47.8-11.3.5-.1.9-.3,1.4-.4,1.2-.2,1.2-.8.8-1.7s-.7-1.6-1.2-2.4a27.39,27.39,0,0,0-29.2-13.8C320.16,391.7,310.46,403.1,310.46,415.7Z"/><path class="cls-5" d="M336,443.6c12.7,0,23-6.8,27.1-17.2a28.14,28.14,0,0,0,1.9-8.1c.2-2.2.1-2.3-2-1.8a.35.35,0,0,0-.2.1l-45.7,10.8c-.9.2-1.8.5-2.8.7s-.9.7-.5,1.3a5.58,5.58,0,0,0,.5.8C319.76,438.9,327.56,443.2,336,443.6Z"/><path class="cls-3" d="M364.66,412c0-1.8-.4-2.1-2.2-1.7l-4.9,1.2c-14.8,3.5-29.7,7.1-44.5,10.6-1.9.4-2.1.6-1.5,2.6.5,1.3,1.4.8,2.2.6,12-2.8,23.9-5.7,35.9-8.5,4.5-1.1,9-2.2,13.5-3.2C364.06,413.2,364.86,413.1,364.66,412Z"/><path class="cls-1" d="M270.26,416.2A30.4,30.4,0,1,1,239,386,30.51,30.51,0,0,1,270.26,416.2Z"/><path class="cls-5" d="M267.26,416.3a27.35,27.35,0,1,0-27.6,27.3A27.4,27.4,0,0,0,267.26,416.3Z"/></svg>