<svg id="_1" data-name="1" xmlns="http://www.w3.org/2000/svg" viewBox="0 0 715.04 1268.9"><defs><style>.cls-1{fill:#151d38;}.cls-2{fill:#b2acbf;}.cls-3{fill:#fae0d6;}.cls-4{fill:#acdcf6;}.cls-5{fill:#a3ceb5;}.cls-6{fill:#fff;}.cls-7{fill:#f8e8a0;}</style></defs><title>merlin</title><path class="cls-1" d="M611.33,1232.46c-7.47,0-54.66.12-62.13.12a110.73,110.73,0,0,0-11.5.6,131.75,131.75,0,0,0-35.9,9.2c-21.64,11.17-53,8.66-73.7,26.52h-1c-1.3-.9-1-2.2-1-3.5v-30.62c0-2.3,0-2.3-2.2-2.3H384.8a3.84,3.84,0,0,0-2.8,1.1c-4.8,4.4-11.3,4.4-16.3,0-1.8-1.6-2.7-1.6-4.5,0a11.91,11.91,0,0,1-16.3,0c-1.8-1.6-2.7-1.5-4.5.1a11.71,11.71,0,0,1-15.9.2,5.16,5.16,0,0,0-3.8-1.4H61.8c-19.3,0-37.36,0-57.8.1a5.8,5.8,0,0,1-3.6-1,1.92,1.92,0,0,1-.4-1.3,4.72,4.72,0,0,1,3.3-1.1H32.1c.7,0,1-.2.8-1a15.36,15.36,0,0,1-.4-4.8v-131.3c0-9.8,3.7-17.7,11.4-23.7a28,28,0,0,1,16.9-5.9h1.7a1.06,1.06,0,0,0,1.2-1.2v-2.9c0-.6-.1-1.3.4-1.6,1.3-.7.9-1.7.7-2.7-.5-3.8-1.1-7.6-1.7-11.4a9.85,9.85,0,0,1-.2-1.7c-.1-1,.4-1.5,1.4-1.6h44.9c2.2.1,2.5.4,2.2,2.6l-1.8,12.3c-.1.9-.4,1.7.6,2.3.6.3.6.9.6,1.5v1.7c0,2.5-.4,2.7,2.6,2.7,16.2.1,28.7,13.5,28.7,29.3-.1,44.2,0,88.5,0,132.7a9.26,9.26,0,0,1-.3,3.3c-.4.9-.1,1.3.9,1.3h16.1c1,0,1-.5.8-1.2a9.26,9.26,0,0,1-.3-3.3v-133a28.73,28.73,0,0,1,23.7-28.7,21.91,21.91,0,0,1,5.7-.4c1.2,0,1.8-.4,1.7-1.6a22.53,22.53,0,0,1,0-2.6c0-.5-.1-1.1.3-1.3,1.5-.8.9-2.1.8-3.2-.5-3.6-1.1-7.3-1.6-10.9a9.85,9.85,0,0,1-.2-1.7c-.1-1.1.5-1.6,1.6-1.7h3.6c.4,0,.9.1,1-.4s-.4-.6-.8-.8c-1.1-.7-2.2-1.4-3.3-2a142.11,142.11,0,0,0-44.7-17.9,74.85,74.85,0,0,0-9.5-1.3,9.85,9.85,0,0,1-1.7-.2c-.9-.1-1.6-.3-1.8-1.2-.2-1.1.6-1.5,1.4-1.9,4.1-1.7,8.3-3.4,12.4-5.1,9.5-3.9,19.1-7.8,28.6-11.8.5-.2,1-.5,1.5-.7.7-.3,1-.6.7-1.4-1.3-2.9-2.5-5.9-3.8-8.8-.4-.9-.9-.9-1.7-.7a27.16,27.16,0,0,1-11,.4,26.37,26.37,0,0,1-13.5-6.3c-1.9-1.7-1.7-1.1-2.5.6-1.8,4.1-3.6,8.2-5.5,12.3-1.1,2.4-1.3,2.5-3.8,1.4a23.94,23.94,0,0,1-2.8-1.3c-1.8-.9-2-1.4-1.1-3.2,2.2-4.8,4.5-9.6,6.7-14.3.5-1.2,1.1-2.3,1.6-3.5a2.19,2.19,0,0,0,.2-1.6c-.4-1.3-.7-1.5-2-1q-8.4,3.15-14.7-3.3c-1.6-1.6-3.2-3.1-4.8-4.7-6-6.1-5.2-15.1,1.9-19.8,1.3-.9,1.1-1.5.7-2.7a12.52,12.52,0,0,1,12.4-17,12.34,12.34,0,0,1,7.9,3.2,2,2,0,0,0,.8.4,1,1,0,0,0,0-.9c-.8-3-2-5.9-2.3-9-1-9.1,2.3-16.4,9.9-21.4,7.5-4.8,15.3-4.4,22.9.1.9.5,1.7,1.8,2.6,1.5s1.2-1.8,1.6-2.8q29.7-63.45,59.4-126.8a4.88,4.88,0,0,0,.3-.7c.2-.5.8-1,.3-1.5-.3-.3-.9-.1-1.4,0-2.5.5-5,1-7.5,1.6a6.75,6.75,0,0,1-1.4.2c-.9.1-1.8.4-2.4-.5s0-1.8.7-2.5c2.4-2.6,4.8-5.2,7.1-7.8,1.6-1.8,1.6-1.8.5-3.8-1.7-2.9-3.3-5.8-5-8.8-.2-.3-.4-.7-.6-1a1.52,1.52,0,0,1,.1-2,1.65,1.65,0,0,1,2-.3c.4.2.9.4,1.3.6,3.2,1.5,6.4,2.9,9.6,4.4a2,2,0,0,0,2.7-.6c2.3-2.6,4.6-5.1,7-7.6.2-.2.3-.4.5-.5.7-.7,1.4-1.7,2.6-1.2s.8,1.6.7,2.6c-.4,3.7-.8,7.5-1.3,11.2a1.73,1.73,0,0,0,1.2,2.2c3.3,1.4,6.6,3,9.8,4.5a10.09,10.09,0,0,1,1.5.7,1.48,1.48,0,0,1,.8,1.6,1.5,1.5,0,0,1-1.1,1.2,10.62,10.62,0,0,1-1.9.4c-3.3.7-6.6,1.3-9.9,2-2,.4-2,.4-2.2,2.4-.3,3.2-.7,6.4-1.1,9.5a6.75,6.75,0,0,0-.2,1.4c-.1.9-.1,1.8-1.3,2.1s-1.7-.7-2.2-1.5c-1.2-2.1-2.4-4.2-3.5-6.3a15.05,15.05,0,0,0-1-1.7c-.2-.4-.3-1-.9-1s-.6.7-.8,1.1l-7.2,16.2q-23.7,53.55-47.5,107.2c-.4.9-1.4,2-.9,2.8.4.6,1.8,0,2.8.1a12.55,12.55,0,0,1,5.1,1c6.4,2.6,12.9,5.2,19.3,7.9A36.31,36.31,0,0,1,223.9,960c-.8.9-1.7,1.7-2.5,2.6a10.91,10.91,0,0,0-.5,14.1,1.85,1.85,0,0,0,2.6.7c4.5-1.9,9-3.7,13.5-5.6a16.67,16.67,0,0,1,2-.8c1.9-.7,2.3-.6,3.2,1.2,1.6,3.1,3.2,6.3,4.7,9.4,6.8,13.8,13.7,27.7,20.5,41.5q21.75,44.1,43.6,88.1c2.8,5.6,5.4,11.2,8.3,16.8,5.7,11,14.9,16.3,27.3,15.8a25.41,25.41,0,0,0,11-3.2c7-3.7,14-7.4,21-11.2,1.9-1,1.9-1,.5-2.6a322.55,322.55,0,0,1-25.4-32.8c-12.8-18.9-23.3-39-29.7-61a154.88,154.88,0,0,1-6.3-38.2,159.1,159.1,0,0,1,1-21.8l2.7-28.2c.7-7.6,1.5-15.3,2.2-22.9.3-3,.3-3.1-2.6-3.2a32.37,32.37,0,0,1-15.8-4.1,30.73,30.73,0,0,1,9.9-56.9,30.39,30.39,0,0,1,6-.5,1.68,1.68,0,0,0,2-1.2c1-2.7,2.1-5.3,2.9-8.1.3-1.2.2-1.4-1.1-1.2a40.8,40.8,0,0,1-12.6-.5,34.43,34.43,0,0,1-12.7-4.8,14.2,14.2,0,0,1-4.1-3.6c-.9-1.2-.6-2.1.8-2.6.9-.3,1.9-.5,2.8-.8a43.12,43.12,0,0,0,16.9-10.2,64.84,64.84,0,0,0,16.3-24c.4-1.1.8-2.3,1.1-3.4.5-1.7.4-1.8-1.3-2.4-4.9-1.8-9.7-3.7-14.5-5.8a116.13,116.13,0,0,1-16.8-8.7,35.59,35.59,0,0,1-7.9-6.5,14.37,14.37,0,0,1-1.8-2.5c-2.6-4.4-1.7-8.8,2.3-11.9a24.8,24.8,0,0,1,8.2-3.9,87.2,87.2,0,0,1,16.7-2.9,277.94,277.94,0,0,1,31.6-.9c10.9.3,21.9.8,32.8,1.7,4.3.4,4.3.4,6.4-3.4q48.6-86.4,97.2-172.9,24.15-42.9,48.3-85.9A34.23,34.23,0,0,1,556.4,474c1.8-.5,3.8-.4,5.6-1.2h5.8c.9.6,2,.4,3,.6,11.5,2.2,20,8.5,25.3,19,6.1,12.1,12.1,24.1,18.2,36.2l36.6,72.6c9.4,18.6,18.7,37.1,28.1,55.7,1.9,3.7,3.7,7.4,5.6,11.1a10.09,10.09,0,0,1,.7,1.5,1.7,1.7,0,0,1-.3,2.2,1.66,1.66,0,0,1-2-.1l-12-7.5c-23.8-14.9-47.5-29.9-71.3-44.8-.3-.2-.7-.4-1-.6-.8-.5-1-.1-.9.7l1.8,11.1c2.3,14.2,4.7,28.4,7,42.6,2,12.2,4,24.4,6,36.7,2.3,14.3,4.7,28.6,7,42.8,2.1,13.1,4.4,26.2,6.4,39.3.4,3.1,1.7,4.2,4.5,5,17.3,4.8,34.5,10.1,51.2,16.9,8.2,3.3,16.3,7,23.7,12a34.13,34.13,0,0,1,5.9,4.9,14.57,14.57,0,0,1,2.9,4.1,8,8,0,0,1-1.5,9.3,17,17,0,0,1-6.6,4.2,61.37,61.37,0,0,1-13.9,3.4c-2.1.3-4.3.5-6.4.8-.9.1-1.2.5-1.3,1.4-.6,12.1-.5,24.1,2.7,35.9a37.53,37.53,0,0,0,1.7,4.7c.9,2.2.5,2.9-2,2.8a22.28,22.28,0,0,1-7.2-1.7,42.33,42.33,0,0,1-11.8-7.3l-1.5-1.2a.53.53,0,0,0-.9.2c0,.1-.1.1-.1.2-2.4,3.3-2.4,3.3,1.3,4.8a30.86,30.86,0,0,1-16.9,58.9c-1.3-.2-2.8-.8-3.7-.3-1.1.6-.6,2.3-.7,3.6-.8,7.3-1.4,14.6-2.1,22-.9,9.7-1.9,19.4-2.8,29.1a158.09,158.09,0,0,1-3.8,23.7,167.7,167.7,0,0,1-22,50.6,231.81,231.81,0,0,1-29.6,37.4c-2.7,2.8-5.5,5.6-8.3,8.3a2.94,2.94,0,0,0-.9,3.7c5,14.1,9.8,28.2,14.8,42.3,2.1,5.9,3.5,12,3,18.3-1.3,17.3-9.7,29.9-24.9,38.1-.4.2-.9.4-1.3.6s-.7.2-.5.6a1.07,1.07,0,0,0,.6.2h43.65Z"/><path class="cls-1" d="M172.5,911.78c.4-.2.7-.4.5-.9.6-.1.5-.5.5-.9.1-.2.2-.2.2,0a.35.35,0,0,1-.2.1,9.29,9.29,0,0,0-.5,1,.61.61,0,0,1-.5.7v.4c-.1.2,0,.4.1.2s0,.1,0-.2S172.6,911.88,172.5,911.78Z"/><path class="cls-1" d="M172.1,914.78c-.6,0-.9.2-.6.9-.7-.1-.7.3-.6.8-.6,0-.5.5-.6.8a1.38,1.38,0,0,0-.3.4,8.49,8.49,0,0,0-.9,2.2l.2.1a3.36,3.36,0,0,0,1.1-2.3c0-.1-.1-.3-.1-.4.8.1.6-.4.6-.8.5,0,.4-.5.6-.8s.2-.8.6-.9a.6.6,0,0,0-.1-.4c0-.1.2-.4-.1-.2C171.9,914.28,172.1,914.58,172.1,914.78Z"/><path class="cls-2" d="M586.5,568.48c-.1-1.4,0-2.3,1.2-2.5s1.6.6,1.7,1.6c.1.6.2,1.1.3,1.7,2.3,13.9,4.6,27.8,6.8,41.6a5.87,5.87,0,0,0,3.1,4.6q39,24.45,78,49c.6.4,1.5,1.3,2,.9s-.3-1.4-.7-2.1c-6.2-12.4-12.5-24.7-18.7-37q-18.15-36-36.3-71.9-13.35-26.55-26.8-53.1c-1.5-3.1-3-6.2-4.7-9.2-11.4-20.6-41.1-21.5-53.8-1.8-1.6,2.5-3.1,5.2-4.6,7.9q-66.45,118.2-132.9,236.5c-.4.8-.9,1.5-1.3,2.3-.7,1.3-.6,1.3.8,1.7a2.77,2.77,0,0,0,.9.1c4.9.9,9.8,1.7,14.6,2.6l47.7,8.4c15,2.7,30.1,5.3,45.1,8,15.7,2.8,31.5,5.6,47.2,8.3,15,2.7,30.1,5.3,45.1,8,5.9,1,11.8,2.1,17.7,3.1,1.6.3,1.7.1,1.4-1.4-1.3-8-2.6-16.1-4-24.1-2.5-15.1-5-30.3-7.4-45.4-2.3-14.2-4.7-28.4-7-42.6-2.5-15.1-5-30.3-7.4-45.4-2.2-13.2-4.3-26.3-6.5-39.5C587.6,575.18,587,571.58,586.5,568.48Z"/><path class="cls-3" d="M529.8,840.88c-.7-.2-1.2.2-1.3,1.3a34.32,34.32,0,0,0-.2,9.6c.3,1.7.7,3.4,1.1,5.1s-.4,2.4-2.1,2.1a13.94,13.94,0,0,1-5.1-2,31.49,31.49,0,0,1-9.2-8.6c-.4-.5-.7-1.1-1.1-1.6s-.6-.5-.8.1a7.37,7.37,0,0,1-.4,1.4,34.68,34.68,0,0,0-.7,7.9c0,2.2-1,2.7-2.9,1.7a13,13,0,0,1-4.1-3.2,28.48,28.48,0,0,1-6.9-14,18.5,18.5,0,0,1-.2-4.1c0-.8-.2-1.2-1-1.3-.6-.1-1.1-.2-1.6-.3-9.6-1.8-19.2-3.6-28.7-5.5-25.7-5.3-51.4-11.1-76.8-17.9-2-.5-2-.5-2.8,1.4a109.21,109.21,0,0,1-8.3,16.8c-9.4,15.2-22.2,26.6-39,33-.6.2-1.6.4-1.7.8-.1.8.9,1,1.4,1.4a7.1,7.1,0,0,0,1.4,1,141.73,141.73,0,0,1,33.8,34,93.67,93.67,0,0,1,15.5,36.1,79.83,79.83,0,0,1,1.4,16.9c0,.4-.2,1.1.4,1.2.4.1.6-.4.9-.7a131.6,131.6,0,0,1,23.4-18.7c4.5-2.9,9.1-5.6,13.9-8.1,1-.5,1.1-.9.4-1.7-1.7-2-3.4-4-5.1-6.1a4.19,4.19,0,0,1-.9-1.4,1.39,1.39,0,0,1,.4-1.7,1.5,1.5,0,0,1,1.8,0,20,20,0,0,1,1.4,1.6,90.52,90.52,0,0,0,20.8,19.7c18.9,12.7,39.5,17.1,61.9,12.5,13.4-2.8,25.3-8.7,36.2-16.9,1.9-1.5,3.7-3,5.6-4.6.8-.6,1.6-.9,2.3,0s.4,1.6-.3,2.3a20,20,0,0,1-1.6,1.4c-2.2,1.7-4.4,3.5-6.6,5.2-1.3,1-1.3,1,0,2.1.3.3.6.5.9.8a163.63,163.63,0,0,1,16,15.2,131.2,131.2,0,0,1,12.7,16c.2.3.3.8.8.8s.4-.6.4-1a85.93,85.93,0,0,1,3.1-12.1c5.4-16,15.1-29.1,27.6-40.3a135.57,135.57,0,0,1,21.8-15.7c1.6-.9,1.6-1,.6-2.5a82.39,82.39,0,0,1-5.6-10.6,94.72,94.72,0,0,1-7.4-36.4c0-2.3,0-2.3-2.2-2.4-2.8-.2-5.6-.4-8.4-.7-9.9-1-19.7-2.1-29.6-3.2-10.9-1.2-21.7-2.6-32.6-4.2C538.3,842.08,534.1,841.48,529.8,840.88Z"/><path class="cls-2" d="M655.3,850.18c6.1,0,10.6.1,15.2,0a149.76,149.76,0,0,0,24.1-2,47.38,47.38,0,0,0,11.7-3.3c.3-.2.8-.2.7-.8,0-.1-.6-.2-.9-.1-5,.4-9.7-.9-14.2-2.7a161.61,161.61,0,0,1-20-9.9c-12.4-6.8-24.7-13.8-37.5-19.8a285.87,285.87,0,0,0-51.7-19c-21.8-5.5-43.9-8.4-66.3-10-14-1-27.9-1.6-41.9-1.9-26.7-.6-53.4-.6-80.1-.5-20.9,0-41.7.2-62.6-1.1-10.7-.6-21.4-1.3-31.8-4.3-.3-.1-.7-.3-.9,0s.3.5.6.7a66.75,66.75,0,0,0,10.9,6.5c9.4,4.8,19.3,8.4,29.2,11.9,4.4,1.5,8.8,3,13.2,4.4,37.2,11.6,75.1,20.4,113.2,28.3,15.3,3.2,30.6,6,46,8.5,11.2,1.8,22.4,3.4,33.7,5,9.1,1.3,18.2,2.4,27.3,3.5,9.7,1.1,19.4,2.2,29.1,3.2,8.8.8,17.7,1.5,26.5,2.2C638.1,849.58,647.5,850,655.3,850.18Z"/><path class="cls-2" d="M268.7,1120.88v30.7a6,6,0,0,0,.7,3.2c2.4,4.5,4.6,9.2,7,13.7a77.09,77.09,0,0,0,34.1,33.9c2.4,1.2,4.9,2.2,7.5,3.3,2.1.8,2.1.8,2.1-1.4v-3.1a16.11,16.11,0,0,1,.9-5.4,20.55,20.55,0,0,1,28.2-12.7,3.69,3.69,0,0,0,3.4.2,19.91,19.91,0,0,1,17.8,0,3,3,0,0,0,2.9,0,20.06,20.06,0,0,1,9-2h8.4c2,0,2,0,2-1.9v-36.5a3.7,3.7,0,0,0-1-2.6c-2.6-2.6-5-5.3-7.6-8-1.2-1.3-1.3-1.3-2.9-.5-7.3,3.9-14.5,7.7-21.8,11.6a28.36,28.36,0,0,1-14.7,3.6c-12.7-.5-22-6.4-27.8-17.7-4-7.8-7.8-15.8-11.7-23.7q-21.75-43.8-43.4-87.7c-5.2-10.5-10.3-20.9-15.5-31.4-1.8-3.6-3.5-7.2-5.3-10.7-.9-1.8-.9-1.8-2.6-1.1a4.88,4.88,0,0,1-.7.3c-24.2,10-48.3,19.9-72.5,29.9-7.1,2.9-14.2,5.8-21.3,8.8-.4.2-1.1.2-1,.8s.6.3,1,.4a140.85,140.85,0,0,1,56.6,23.6,5.84,5.84,0,0,0,3.8,1.1h31c3,0,3.2.2,2.8,3.2-.5,3.7-1.1,7.4-1.6,11.1-.2,1.2-.7,2.4.8,3.1.4.2.3.9.3,1.3v2.2c0,2,0,2,2,2.1a29.29,29.29,0,0,1,7.8,1,28.7,28.7,0,0,1,21.4,28C268.7,1101.38,268.7,1111.08,268.7,1120.88Z"/><path class="cls-4" d="M139.1,1160.28v-65.8c0-.8-.4-1.1-1.2-1a9.24,9.24,0,0,0-4,1.5c-1.2.8-2.3,1.7-3.5,2.6a14.11,14.11,0,0,1-16.6-.1c-.7-.5-1.4-1-2.1-1.6a11.17,11.17,0,0,0-14.3.1c-.6.5-1.3,1-1.9,1.5-4.8,3.7-12.2,3.7-16.8,0-.8-.6-1.7-1.2-2.5-1.9-3.6-3.1-9.9-2.9-13.4,0a31.55,31.55,0,0,1-2.9,2.2,13.06,13.06,0,0,1-7.4,2.4,13.87,13.87,0,0,1-9.9-3.5,14.24,14.24,0,0,0-4.7-2.9c-2.5-.8-2.8-.7-2.8,1.9v130a3.44,3.44,0,0,0,3.3,3.5,12.05,12.05,0,0,0,1.9,0h95.3a3.46,3.46,0,0,0,3.3-3.2,16.13,16.13,0,0,0,0-2.2C139.1,1202.68,139.1,1181.48,139.1,1160.28Z"/><path class="cls-5" d="M162.1,1160.38V1226a3.35,3.35,0,0,0,3.3,3.4,12.05,12.05,0,0,0,1.9,0h94.8c2.4-.1,3.6-1.4,3.7-3.8v-131c0-.9-.5-1.1-1.2-1a9.17,9.17,0,0,0-3.6,1.3c-1,.7-2,1.4-2.9,2.1a14.24,14.24,0,0,1-18.5-.1c-.6-.5-1.3-1-1.9-1.5-3.2-2.6-9.5-2.6-12.6,0-.7.6-1.4,1-2.1,1.6a14.21,14.21,0,0,1-18.3,0,23.48,23.48,0,0,0-2.5-1.9,10.69,10.69,0,0,0-5.2-1.7c-3.6-.3-6.4,1.2-8.9,3.4a14.16,14.16,0,0,1-18.7-.1,15.64,15.64,0,0,0-4-2.7c-2.9-1.3-3.4-.9-3.4,2.2C162.1,1117.68,162.1,1139,162.1,1160.38Z"/><path class="cls-2" d="M428.6,1236v27.92c0,.3-.1.7.3.8s.6-.2.8-.4c16.14-14,42.8-12.82,64.6-22.52,17.8-7.9,36.3-12.5,56-12.5a39.45,39.45,0,0,0,18-4.6c17.6-9.1,27.1-30.2,20.3-50-5-14.5-10-29-15.1-43.5l-.3-.9c-.2-.6-.6-.7-1.1-.3a10,10,0,0,0-1.1,1c-8,7.4-16.4,14.3-25.1,20.9-4,3-8.1,6-12.2,8.9-1.6,1.2-1.6,1.2-1,3.1.5,1.4,1,2.9,1.4,4.3a12.31,12.31,0,0,1-12,16.1c-6.3-.2-12.6.2-19-.1a21.55,21.55,0,0,0-12.4,3.2c-8.2,4.8-16.8,8.9-25.4,12.9-1.4.6-2.5.8-3.7-.3a17,17,0,0,0-1.4-1c-6.4-4.4-12.6-9.1-18.7-13.8a3.26,3.26,0,0,0-2.3-1c-3,.1-6.1.1-9.1,0-1.2,0-1.6.5-1.5,1.6V1236Z"/><path class="cls-1" d="M398.7,741.38c-1.4-.5-1.7.7-2.1,1.5-5.9,10.4-11.8,20.9-17.6,31.4-1.7,3-1.7,3,1.7,3,28.6.1,57.3-.2,85.9.4,16.3.3,32.6.8,48.9,1.9a435.92,435.92,0,0,1,48.3,5.8,272.68,272.68,0,0,1,58.2,17.3c.7.3,1.5.6,2.2.9s.9-.1.8-.7a2.92,2.92,0,0,0-.2-.9c-1-6.2-2.1-12.5-3.1-18.7-.4-2.5-.4-2.5-2.8-2.9-6.1-1.1-12.3-2.1-18.4-3.2l-50.7-9c-14.9-2.6-29.7-5.3-44.6-7.9s-29.9-5.3-44.8-7.9-29.9-5.3-44.8-7.9C409.8,743.28,404.2,742.38,398.7,741.38Z"/><path class="cls-3" d="M231.7,935c-.2-14.4-8.5-26.2-20.6-31.2-6.1-2.5-12.1-5-18.2-7.5a14.26,14.26,0,0,0-2.7-.9c-6.7-1.5-13.1,4.8-11.8,11.5a10.68,10.68,0,0,0,6.7,8.1c4.6,1.9,9.3,3.8,14,5.7a10.09,10.09,0,0,1,1.5.7,1.55,1.55,0,0,1,.9,2,1.43,1.43,0,0,1-2,.8,11.22,11.22,0,0,0-1.3-.5c-4.5-1.8-9-3.7-13.5-5.5a15.23,15.23,0,0,1-7.1-5.4c-.8-1.2-.9-1.2-1.6.3-1.7,3.9-3.4,7.8-5.1,11.6a8.56,8.56,0,0,0-.5,2.3c-.3,2.6-.9,5.1-2.7,7a19.61,19.61,0,0,0-3.5,5.9c-.8,1.8-1.6,3.7-2.4,5.5a8.47,8.47,0,0,0-.9,3.2,10.62,10.62,0,0,1-2.5,6.4,22.48,22.48,0,0,0-3.5,6c-1.7,3.9-3.5,7.9-5.2,11.8-1,2.3-1,2.3.9,4,6.9,5.9,14.7,7.7,23.5,5.3,2.2-.6,2.4-.6,3.3,1.5,1.4,3.1,2.7,6.3,4.1,9.5.7,1.6.7,1.7,2.4,1,11.3-4.6,22.6-9.3,33.9-14,1.6-.7,1.6-.7.6-2.3a14.1,14.1,0,0,1,1.9-17.8c.7-.7,1.4-1.3,2-2A34.54,34.54,0,0,0,231.7,935Z"/><path class="cls-6" d="M213.9,1059.38H194.7c-1,0-1.4.4-1.4,1.4v2.6c-.1,1.5-.6,2-2,2.1a22.53,22.53,0,0,1-2.6,0,26.12,26.12,0,0,0-26.4,22.7c-.3,1.9-.2,2,1.7,2.3a14,14,0,0,1,6.4,3,26.93,26.93,0,0,0,2.7,2,10.45,10.45,0,0,0,11.5,0c1-.6,1.9-1.4,2.9-2.1a14,14,0,0,1,17.7,0c.8.6,1.5,1.2,2.3,1.7a10.65,10.65,0,0,0,12.7,0c.8-.6,1.6-1.3,2.5-1.9a14,14,0,0,1,17.3,0c.9.7,1.8,1.4,2.7,2a10.19,10.19,0,0,0,6.3,1.9,11.58,11.58,0,0,0,7.4-2.9c2.3-1.9,4.8-3.5,7.8-3.8,1.4-.1,1.4-.8,1.3-1.9a25.07,25.07,0,0,0-3.9-11c-5.4-8.1-13.1-12.2-22.9-12.1-4.2.1-4.3,0-4.2-4,0-2.2,0-2.2-2.3-2.2C226.2,1059.38,220,1059.38,213.9,1059.38Z"/><path class="cls-6" d="M123.2,1097.28c2,.1,4.4-1.2,6.6-3a18.94,18.94,0,0,1,6-3.5c1.1-.4,2.7.3,3.1-1.1.3-1.1-.2-2.4-.4-3.5,0-.1,0-.2-.1-.2a26.09,26.09,0,0,0-26.4-20.4c-4,.2-4.2.2-4.2-4,0-2.1,0-2.1-2.1-2.1H68.8c-2.3,0-2.3,0-2.3,2.2v2.2a1.73,1.73,0,0,1-1.8,1.8H61.1a25.09,25.09,0,0,0-15.8,5.5,26.07,26.07,0,0,0-9.8,17c-.3,2.1-.2,2.1,1.8,2.5a14,14,0,0,1,5.5,2.3c1.1.8,2.1,1.7,3.3,2.5a10.68,10.68,0,0,0,12.2.1c1.2-.8,2.3-1.7,3.5-2.6a14.14,14.14,0,0,1,16.2,0c1,.7,1.9,1.5,2.9,2.2a10.8,10.8,0,0,0,12.9.1c.7-.5,1.4-1,2.1-1.6a14.31,14.31,0,0,1,18.1.1c.7.6,1.5,1.2,2.3,1.8A11.89,11.89,0,0,0,123.2,1097.28Z"/><path class="cls-3" d="M402.7,1184.28H382.3a17.18,17.18,0,0,0-12,4.6c-4.2,3.8-5.8,8.6-5.8,14.2v20.1c0,1,.1,2.1.2,3.1a8.82,8.82,0,0,0,17.5-1.8v-20.9c0-2.7.3-3.5,1.5-3.6s1.6.7,1.6,3.4v20.1a13.28,13.28,0,0,1-.4,4c-.4,1.5-.3,1.6,1.3,1.6h37.4c1.9,0,1.9,0,1.9-1.8V1186c0-1.9,0-1.9-2-1.9C416.7,1184.28,409.7,1184.28,402.7,1184.28Z"/><path class="cls-6" d="M294.3,1229.28h25.2c1,0,1.3-.5,1-1.4a15.61,15.61,0,0,1-.4-4.8v-11c0-2.8.3-2.3-2.4-3.3-.1-.1-.3-.1-.5-.2a79.84,79.84,0,0,1-34.7-25.1,104.6,104.6,0,0,1-12.3-20.3c-.3-.7-.5-1.9-1.2-1.8s-.3,1.4-.3,2.1v59.2c0,1.8.3,3.7-.4,5.5-.3.8.2,1,.9,1h1.7C278.7,1229.28,286.5,1229.28,294.3,1229.28Z"/><path class="cls-2" d="M351.6,754.48c-5.3.1-10.5-.3-15.8-.1-8.2.3-16.3.5-24.4,1.8-4.7.7-9.5,1.6-13.8,3.8a10.72,10.72,0,0,0-3.8,2.9c-1.7,2.1-1.5,4.1.5,5.9a12.3,12.3,0,0,0,3.1,1.9,42.07,42.07,0,0,0,7.1,2.3c9.9,2.2,19.9,2.8,30,3.4,6.2.3,12.5.5,18.7.6,6.4.1,12.8.2,19.2.4a2,2,0,0,0,2.1-1.2c3.4-6.2,6.9-12.3,10.3-18.4.7-1.3.7-1.4-.8-1.5-5.3-.4-10.7-.7-16-1C362.5,754.78,357,754.48,351.6,754.48Z"/><path class="cls-3" d="M320.8,916H323c1.2.1,1.5-.4,1.6-1.5.2-3.3.6-6.5.9-9.8.7-7.6,1.5-15.1,2.2-22.7.5-5.2,1-10.3,1.5-15.5.1-1.1-.1-1.4-1.3-1.2-1.6.3-3.3.5-5,.7-4,.4-4.2-1.2-2.5-3.9,1-1.5.7-1.7-1-1.6a27.77,27.77,0,0,0,1.4,55.5Z"/><path class="cls-3" d="M682.6,920.38a21.25,21.25,0,0,0-.6-5.4c-2.4-10.2-8.6-17.1-18.4-20.7-1.6-.6-1.6-.5-2.3,1a36.14,36.14,0,0,0-1.9,6.4c-.6,2.6-.6,2.6,1.9,3.5,7.2,2.6,11.4,9.5,10.7,17.4-.6,7.1-6.5,13.2-13.8,14.3a21.66,21.66,0,0,1-3.6.1c-1,0-1.8-.4-1.8-1.5s.8-1.5,1.8-1.4h.7a13.58,13.58,0,0,0,10.6-4.8c6.2-7,2.9-18.7-5.9-21.4-1.3-.4-1.5-.4-1.7,1.1a32.12,32.12,0,0,0-.1,6.2,57.11,57.11,0,0,0,1.1,8.3c.5,2.2-.6,3-2.7,2.3a8.86,8.86,0,0,1-1.7-.8c-1.7-.9-3.3-1.9-5-2.8-1.3-.7-1.4-.7-1.5.8-.7,6.6-1.3,13.2-1.9,19.8-.1,1.5-1.1,3.3-.1,4.4s2.8.7,4.3,1A27.85,27.85,0,0,0,682.6,920.38Z"/><path class="cls-2" d="M703.6,841.08a19.38,19.38,0,0,0,3.6-.3c5.5-1.4,6.1-2.7,2.5-7.3a25.07,25.07,0,0,0-6.3-5.4,114.15,114.15,0,0,0-18-9.4c-16.3-7-33.2-12.3-50.2-17.3-2.1-.6-4.3-1.3-6.4-1.9-.9-.2-1.4-.1-1.2,1a27.41,27.41,0,0,1,.5,2.8,3.3,3.3,0,0,0,2.4,3.1c3.7,1.6,7.4,3.4,11,5.2,11.5,5.7,22.7,12.1,34,18.2a157.91,157.91,0,0,0,18.5,9A32.8,32.8,0,0,0,703.6,841.08Z"/><path class="cls-3" d="M162.8,893.28a25.81,25.81,0,0,0-4,.4A18.61,18.61,0,0,0,144.5,915a82.33,82.33,0,0,0,4.4,15.2,9.24,9.24,0,0,0,10.1,5.7,9.58,9.58,0,0,0,7.8-12.5c-1.3-4.8-2.8-9.5-4.2-14.3a5.22,5.22,0,0,1-.4-2.1,1.39,1.39,0,0,1,1-1.2c.6-.1,1.2-.1,1.5.5a4.71,4.71,0,0,1,.6,1.5c.6,2.1,1.2,4.1,1.9,6.2a3.51,3.51,0,0,0,.5.8c.2-.2.5-.4.6-.7,2.3-4.8,4.6-9.7,6.9-14.5a1.46,1.46,0,0,0-.5-2A19.73,19.73,0,0,0,162.8,893.28Z"/><path class="cls-3" d="M343.7,1212.08v11.3a14.72,14.72,0,0,0,.4,3.6,8.85,8.85,0,0,0,17.4-2.2v-22.1c0-5.9,1.8-11.2,6-15.4a4.62,4.62,0,0,0,.7-.7c.5-.5.3-.8-.3-1-.4-.1-.7-.3-1.1-.4a17.47,17.47,0,0,0-22.7,14.1C343.4,1203.78,343.9,1208.28,343.7,1212.08Z"/><path class="cls-3" d="M323,1211.28c0,4.5-.1,9.1,0,13.6a8.91,8.91,0,0,0,11.4,8.3,8.74,8.74,0,0,0,6.3-8.6v-22.5a20.08,20.08,0,0,1,5.8-14.5,6.47,6.47,0,0,0,.8-.9c.4-.4.5-.8-.2-1a18.29,18.29,0,0,0-2.5-.8,17.63,17.63,0,0,0-21.7,16.7C323,1204.78,323,1208,323,1211.28Z"/><path class="cls-2" d="M416,1181.28h18c.6,0,1.5.4,1.7-.3s-.7-.9-1.1-1.3c-12.8-10.5-25.1-21.5-36.8-33.2l-1.2-1.2c-.3-.3-.6-.2-.7.2a4.87,4.87,0,0,0-.1,1.2v32.6c0,2,0,2,2,2Z"/><path class="cls-3" d="M157.9,947.68a10.08,10.08,0,0,0-2.4-6.6,21.09,21.09,0,0,0-5-4.4,7.74,7.74,0,0,1-2.8-2.6c-1.7-2.8-4.3-4.7-6.5-7a8,8,0,0,0-4.8-2.5,9.46,9.46,0,0,0-10.2,4.7,9.24,9.24,0,0,0,1.3,11.3c4.7,4.8,9.4,9.6,14.3,14.2a8.66,8.66,0,0,0,10,1.6C155.7,954.68,157.5,951.58,157.9,947.68Z"/><path class="cls-1" d="M214,1042.48H194.8c-2.1,0-2.1.1-1.8,2l1.5,9.9c.3,2.1.4,2.1,2.6,2.1h34c1.9,0,1.9,0,2.1-1.8.5-3.5,1-7,1.6-10.4.3-1.7.1-1.8-1.7-1.8Z"/><path class="cls-1" d="M87.4,1042.48H68.2c-2.2,0-2.2,0-1.9,2.1.5,3.2.9,6.3,1.4,9.5.4,2.4.4,2.4,2.8,2.4h34.7a1.11,1.11,0,0,0,1.2-.9c.6-4,1.2-8.1,1.8-12.1.1-.6-.2-.9-.8-.9h-1.9C99.6,1042.48,93.5,1042.48,87.4,1042.48Z"/><path class="cls-3" d="M134.4,966.88a10,10,0,0,0,9.1-5.9c.4-1,.4-1.6-.7-2a12.75,12.75,0,0,1-4.4-3.3c-3.9-3.9-7.8-7.8-11.7-11.6-1.5-1.5-1.6-1.5-3.4-.3a9.47,9.47,0,0,0-1.8,14.1c2.2,2.4,4.6,4.7,7,6.9A8.88,8.88,0,0,0,134.4,966.88Z"/><path class="cls-7" d="M251.4,740.68s.2-.4-.2-.5-.6.2-.8.4c-1.5,1.6-3,3.3-4.6,4.9-2.1,2.3-2.1,2.3-4.8,1-2-.9-3.9-1.8-5.9-2.7-.4-.2-.7-.5-1.1-.2s.1.7.2,1c1.2,2.1,2.4,4.2,3.5,6.3s1.1,2.1-.4,3.8-3.3,3.5-4.9,5.3c-.3.3-.7.6-.5,1s.7.2,1.1.1c2.2-.4,4.4-.8,6.6-1.4s2.7-1,4.3,2.1c1.1,2,2.3,4,3.5,6a1,1,0,0,0,.5.4c.1-.2.3-.4.3-.6.3-2.4.6-4.8.9-7.1.3-2.6.3-2.7,2.9-3.3,2.3-.5,4.7-.9,7-1.5a3.51,3.51,0,0,0,.8-.5,3.74,3.74,0,0,0-.7-.6c-2.2-1-4.4-2-6.5-3s-2.2-1-2-3.4C250.8,746,251.1,743.48,251.4,740.68Z"/><path class="cls-2" d="M513.5,1181.28h8.9a9.23,9.23,0,0,0,8.9-12.2c-.4-1.3-.8-2.6-1.3-3.8-.5-1.4-.6-1.4-1.8-.6-8,5.4-16.1,10.6-24.5,15.5-.3.2-.9.4-.8.8.1.6.8.4,1.2.4C507.3,1181.28,510.4,1181.28,513.5,1181.28Z"/><path class="cls-1" d="M137.6,990.68c.4.1.6-.2.8-.5s.4-.9.6-1.3c3.9-8.8,7.8-17.5,11.6-26.3.3-.6.5-1.2.8-1.8.2-.4.4-.8-.1-1.1-.3-.2-.8,0-1.1.3a4.53,4.53,0,0,0-1.1,1.9c-4,8.6-8.1,17.2-12.1,25.8a7.54,7.54,0,0,0-.6,1.3A1.33,1.33,0,0,0,137.6,990.68Z"/><path class="cls-1" d="M160.7,938.68h-.2a2.85,2.85,0,0,0-1.2,2.4c0,.2.1.5.4.4.7-.3.7-1.1,1.1-1.7a1.45,1.45,0,0,0,.2-.7C161.1,938.78,160.9,938.68,160.7,938.68Z"/><path class="cls-1" d="M708.3,730.28c-.2.7-.5,1.2-1.2,1.3a14.92,14.92,0,0,1-2.1.2c-4.1.5-6.6,2.9-7.9,6.7a30.15,30.15,0,0,0-1.3,9,14.77,14.77,0,0,1-.1,2.1,1.32,1.32,0,0,1-2.6,0,24.62,24.62,0,0,1-.2-2.6,25.73,25.73,0,0,0-1-7.3c-1.3-5-3.9-7.3-9-7.9a7.08,7.08,0,0,0-1.4-.1,1.22,1.22,0,0,1-1.1-1.3,1.39,1.39,0,0,1,1.1-1.4,9.15,9.15,0,0,1,1.7-.1,8.89,8.89,0,0,0,8.3-6.3,27.27,27.27,0,0,0,1.5-8.9,21.75,21.75,0,0,1,.1-2.6,1.3,1.3,0,0,1,1.3-1.2,1.43,1.43,0,0,1,1.5,1.3c.2,1.7.2,3.5.3,5.3a21.39,21.39,0,0,0,1.1,5.6c1.4,4.3,4.3,6.6,8.8,6.9a6.15,6.15,0,0,1,1.4.1C707.9,729.08,708.2,729.58,708.3,730.28Zm-14,6.6c.1-.2.3-.3.3-.4a12.85,12.85,0,0,1,4.6-5.7c.6-.4.4-.8-.1-1.1a12.43,12.43,0,0,1-4.4-5.5c-.3-.7-.7-.6-.9-.1a12.21,12.21,0,0,1-4.6,5.7c-.4.2-.4.6,0,1a12.33,12.33,0,0,1,4.6,5.7C693.8,736.58,694.1,736.68,694.3,736.88Z"/><path class="cls-1" d="M123.4,738.18c1.2.1,1.4.9,1.4,1.9a88.33,88.33,0,0,0,.4,8.9,50.57,50.57,0,0,0,2.3,12.2c2.8,8.2,8.3,13.1,17.1,13.8l3.1.3c.8.1,1.4.4,1.4,1.3a1.37,1.37,0,0,1-1.5,1.5,29.57,29.57,0,0,0-5.2.5,18,18,0,0,0-13.4,9.9c-2.5,4.8-3.4,10-3.9,15.2-.3,3-.5,6.1-.5,9.1a4.87,4.87,0,0,1-.1,1.2,1.22,1.22,0,0,1-1.3,1.1,1.32,1.32,0,0,1-1.4-1.1,15.48,15.48,0,0,1-.1-2.2,75.33,75.33,0,0,0-1.9-17.1,26.54,26.54,0,0,0-1.2-3.7c-3.1-8.3-9.3-12.5-18.1-13H98.8c-.9-.1-1.6-.5-1.6-1.4s.6-1.3,1.6-1.4a38.05,38.05,0,0,0,5.9-.7c6.3-1.3,10.5-5.1,13.1-10.8a41.64,41.64,0,0,0,3.2-13.5c.3-3.3.5-6.7.5-10.1C122,738.78,122.5,738.18,123.4,738.18Zm.1,20.2c-.2.1-.4.2-.4.3a4.87,4.87,0,0,0-.4,1.1c-2,7.2-5.6,13.2-12.9,16.3-.2.1-.5.3-.5.4,0,.5.5.6.8.7a20.53,20.53,0,0,1,9.9,9.4,50.46,50.46,0,0,1,2.6,6.4c.2.6,0,1.7.9,1.8.5,0,.5-1.1.6-1.6,2-7.1,5.6-12.9,12.6-16,.3-.1.7-.2.7-.6s-.5-.5-.8-.7c-6.2-2.8-9.8-7.8-11.8-14l-.9-3A2.18,2.18,0,0,1,123.5,758.38Z"/><path class="cls-1" d="M346.1,632.18a1.42,1.42,0,0,1,1.4,1.6c0,2.2.2,4.3.4,6.5a21.29,21.29,0,0,0,1.9,7.4,9.67,9.67,0,0,0,8.4,5.8l2.4.3a1.12,1.12,0,0,1,1,1.2,1.5,1.5,0,0,1-1,1.5,4.13,4.13,0,0,1-1.9.2,10.23,10.23,0,0,0-9.5,6.9c-1.5,3.7-1.6,7.6-1.9,11.5v1.4a1.24,1.24,0,0,1-1.3,1.4,1.33,1.33,0,0,1-1.5-1.5v-1.7a32.92,32.92,0,0,0-1.4-9.9c-1.8-5.6-4.6-7.8-10.4-8.3a5.9,5.9,0,0,1-1.4-.2,1.26,1.26,0,0,1-.9-1.5,1.18,1.18,0,0,1,1.1-1.1l2.1-.3a9.87,9.87,0,0,0,8.8-6.4c1.6-3.7,1.9-7.7,2-11.7a12.1,12.1,0,0,1,.1-1.9A1.59,1.59,0,0,1,346.1,632.18Zm6.7,22.8c-.2-.1-.4-.3-.6-.4a14.3,14.3,0,0,1-5.6-7c-.3-.7-.7-.6-.9,0a13.77,13.77,0,0,1-5.6,7c-.6.4-.5.7,0,1a11.63,11.63,0,0,1,2.9,2.5,14.25,14.25,0,0,1,2.5,4.3c.1.3.2.7.6.6s.4-.4.5-.7a14.18,14.18,0,0,1,5.5-6.8C352.4,655.48,352.5,655.18,352.8,655Z"/><path class="cls-1" d="M88.5,864.68c-.1.7-.4,1.2-1.1,1.3l-2.6.3a10.16,10.16,0,0,0-8.5,6.5c-1.3,3.1-1.6,6.5-1.9,9.8-.1,1.1-.1,2.2-.1,3.4a1.42,1.42,0,0,1-1.4,1.6c-1,0-1.4-.7-1.4-1.6a43.11,43.11,0,0,0-.9-9.5,16.81,16.81,0,0,0-.9-3.2,9.88,9.88,0,0,0-8.6-6.9l-2.4-.3a1.28,1.28,0,0,1-1.3-1.4,1.43,1.43,0,0,1,1.4-1.4c.5-.1,1,0,1.4-.1a10.23,10.23,0,0,0,9.5-6.9c1.4-3.6,1.7-7.5,1.9-11.3a14.77,14.77,0,0,1,.1-2.1,1.26,1.26,0,0,1,1.4-1.1,1.22,1.22,0,0,1,1.3,1.1,9.15,9.15,0,0,1,.1,1.7,43.16,43.16,0,0,0,1,8.8,17.1,17.1,0,0,0,.9,3,10,10,0,0,0,9.3,6.8,9.7,9.7,0,0,1,1.7.1C88,863.28,88.4,863.88,88.5,864.68Zm-9.1.1c-.1-.5-.5-.7-.8-.9a12.51,12.51,0,0,1-4.4-5c-.3-.6-.5-1.2-.8-1.7-.3-.7-.7-.5-1,.1a14.3,14.3,0,0,1-5.6,7c-.4.2-.6.6-.1.9a13.83,13.83,0,0,1,5.7,6.9c.1.2.2.5.4.5.4.1.5-.2.7-.5a14,14,0,0,1,5.4-6.8C79.1,865.08,79.2,864.88,79.4,864.78Z"/><path class="cls-1" d="M419.5,887.08a78.11,78.11,0,0,0,27.7-4.5c4.5-1.6,8.9-3.5,13.4-5.2a51.63,51.63,0,0,1,9.7-2.8c5.5-.9,10.3.6,14.7,3.7a32.7,32.7,0,0,1,5.1,4.7c.8.9,1.4,1,2.4.2a32,32,0,0,1,6.1-3.7,19.44,19.44,0,0,1,16.5-.2,68.64,68.64,0,0,1,10.2,5.8c6,3.9,12,7.7,18.6,10.5a80.2,80.2,0,0,0,21.5,5.6,12.5,12.5,0,0,1,1.9.3,1.41,1.41,0,0,1,.4,2.6,9.15,9.15,0,0,1-1.7.9,92.18,92.18,0,0,1-14.3,5.6,8.68,8.68,0,0,0-3.9,2.6c-10.8,12.2-23.9,20.8-39.9,24.1-23.7,4.9-44.6-.9-62.6-17.1a68.87,68.87,0,0,1-14-17.8,6.16,6.16,0,0,0-2.7-2.6,96.81,96.81,0,0,1-15-9.4c-.9-.6-2.1-1.2-1.6-2.6s1.9-.9,2.9-.9A25,25,0,0,1,419.5,887.08Z"/><path class="cls-6" d="M543.2,912.68a66.75,66.75,0,0,1-20.9,2.2c-12.1-.5-22.8-4.4-31.6-13.1-1.2-1.2-1.3-1.2-2.8-.2-10.3,6.9-21.7,8.6-33.7,6.8a77.56,77.56,0,0,1-17.5-5c-.3-.1-.8-.5-1.1-.2s.1.7.3,1A67.73,67.73,0,0,0,446.3,917c15.8,14.7,34.4,21,55.9,18,15.9-2.2,29.2-9.5,40.3-21,.5-.2,1-.6.7-1.3C543.1,912.68,543.2,913,543.2,912.68Z"/><path class="cls-1" d="M580.1,895.38a10.37,10.37,0,0,1-10.4-10.6,10.45,10.45,0,1,1,10.4,10.6Z"/><path class="cls-1" d="M401.6,857.28a10.4,10.4,0,0,1-.2,20.8,10.37,10.37,0,0,1-10.3-10.4C391.1,861.18,396.7,856.88,401.6,857.28Z"/><path class="cls-1" d="M494.2,859.78c.8,0,1.4.2,1.6.9a1.42,1.42,0,0,1-.5,1.7,10.09,10.09,0,0,1-1.5.7c-3,1.2-6.1,2.5-9.1,3.7-1.8.8-1.8.8-.2,2.1l7.5,6.3c1.5,1.2,1.8,2.2,1,2.9s-1.6.6-2.9-.6c-3.4-2.9-6.8-5.7-10.3-8.6-.2-.2-.5-.4-.7-.6-1-1.1-.8-2.2.6-2.8,1.2-.6,2.5-1,3.8-1.5,3.1-1.3,6.2-2.5,9.3-3.8A7.37,7.37,0,0,0,494.2,859.78Z"/><path class="cls-1" d="M604.2,879.78a16.82,16.82,0,0,0-12.7-17.1,9.36,9.36,0,0,1-1.6-.4,1.26,1.26,0,0,1-.9-1.5,1.43,1.43,0,0,1,1.5-1.3,12.5,12.5,0,0,1,1.9.3,19.63,19.63,0,0,1,14.8,21,2.92,2.92,0,0,1-.2.9,1.4,1.4,0,0,1-1.8,1.2,1.46,1.46,0,0,1-1.2-1.6C604,880.78,604.2,880.08,604.2,879.78Z"/><path class="cls-1" d="M375.1,858.78a19.41,19.41,0,0,1,19.5-18.2,2.38,2.38,0,0,1,1.8.5,1.4,1.4,0,0,1-.6,2.3,4.73,4.73,0,0,1-1.7.1,16.5,16.5,0,0,0-15.9,15,3.75,3.75,0,0,1-.1,1,1.48,1.48,0,0,1-1.7,1.3c-.9-.1-1.1-.8-1.2-1.5A2.81,2.81,0,0,1,375.1,858.78Z"/><path class="cls-1" d="M69.5,1155.38A8.64,8.64,0,0,1,61,1164a8.55,8.55,0,1,1,8.5-8.6Zm-3,.2a5.36,5.36,0,0,0-5.4-5.6,5.49,5.49,0,0,0-5.5,5.2,5.41,5.41,0,0,0,5.2,5.7A5.49,5.49,0,0,0,66.5,1155.58Z"/><path class="cls-1" d="M113.3,1200.58a8.51,8.51,0,0,1,8.6-8.5,8.67,8.67,0,0,1,8.4,8.5,8.5,8.5,0,1,1-17,0Zm8.4-5.5a5.64,5.64,0,0,0-5.5,5.6,5.71,5.71,0,0,0,5.7,5.4,5.49,5.49,0,0,0,5.3-5.4A5.57,5.57,0,0,0,121.7,1195.08Z"/><path class="cls-1" d="M72.9,1104.58a6.35,6.35,0,0,1,.1,12.7,6.32,6.32,0,0,1-6.4-6.4A6.15,6.15,0,0,1,72.9,1104.58Zm0,3a3.42,3.42,0,0,0-3.3,3.4,3.35,3.35,0,0,0,3.4,3.3,3.49,3.49,0,0,0,3.4-3.3A3.59,3.59,0,0,0,72.9,1107.58Z"/><path class="cls-1" d="M91.7,1179.38a4.44,4.44,0,0,1-4.5,4.6,4.55,4.55,0,0,1-.1-9.1A4.5,4.5,0,0,1,91.7,1179.38Zm-4.4-1.4a1.47,1.47,0,0,0-1.5,1.5,1.34,1.34,0,0,0,1.3,1.4,1.55,1.55,0,0,0,1.7-1.3A1.71,1.71,0,0,0,87.3,1178Z"/><path class="cls-1" d="M119.5,1175.78a3.22,3.22,0,0,1-3.1,3.3,3.07,3.07,0,0,1-3.3-3.2,3.22,3.22,0,0,1,3.2-3.2A3.35,3.35,0,0,1,119.5,1175.78Z"/><path class="cls-1" d="M69.7,1194.78a3.14,3.14,0,0,1,3.2,3.1,3.1,3.1,0,0,1-3.1,3,3,3,0,0,1-3.1-3.2A2.93,2.93,0,0,1,69.7,1194.78Z"/><path class="cls-1" d="M52.8,1179.48a3,3,0,0,1-3,3,3,3,0,0,1-3.1-3,3.1,3.1,0,0,1,3.2-3.2A3.25,3.25,0,0,1,52.8,1179.48Z"/><path class="cls-1" d="M117.8,1130.78a2.89,2.89,0,0,1-2.9,3.1,2.83,2.83,0,0,1-3.1-2.9,3,3,0,0,1,3-3.3A3.1,3.1,0,0,1,117.8,1130.78Z"/><path class="cls-1" d="M212.7,1204.88a8.45,8.45,0,0,1-16.9.1,8.45,8.45,0,1,1,16.9-.1Zm-8.6,5.4a5.55,5.55,0,0,0,5.6-5.4,5.5,5.5,0,0,0-11-.2A5.48,5.48,0,0,0,204.1,1210.28Z"/><path class="cls-1" d="M214.7,1177.48a8.4,8.4,0,1,1,8.5-8.5A8.49,8.49,0,0,1,214.7,1177.48Zm.1-13.9a5.62,5.62,0,0,0-5.6,5.4,5.48,5.48,0,0,0,5.5,5.5,5.45,5.45,0,1,0,.1-10.9Z"/><path class="cls-1" d="M218.8,1130.78a6.09,6.09,0,0,1,6.4-6.2,6.24,6.24,0,0,1,6.2,6.5,6.09,6.09,0,0,1-6.4,6.2A6.24,6.24,0,0,1,218.8,1130.78Zm2.9-.1a3.35,3.35,0,1,0,6.7.2,3.27,3.27,0,0,0-3.2-3.4A3.42,3.42,0,0,0,221.7,1130.68Z"/><path class="cls-1" d="M249.6,1121.28a4.25,4.25,0,0,1-4.5,4.5,4.44,4.44,0,0,1-4.6-4.5,4.65,4.65,0,0,1,4.6-4.6A4.57,4.57,0,0,1,249.6,1121.28Zm-4.6,1.5a1.48,1.48,0,0,0,1.6-1.4,1.36,1.36,0,0,0-1.4-1.6,1.4,1.4,0,0,0-1.6,1.3A1.49,1.49,0,0,0,245,1122.78Z"/><path class="cls-1" d="M243,1179a3.2,3.2,0,1,1,0-6.4,3.2,3.2,0,0,1,0,6.4Z"/><path class="cls-1" d="M196.3,1126.78a3.1,3.1,0,0,1-6.2.2,3.1,3.1,0,0,1,6.2-.2Z"/><path class="cls-1" d="M176.4,1176.38a3.18,3.18,0,0,1,3.1,3.1,3,3,0,0,1-3.2,3.1,3.16,3.16,0,0,1-3-3.1A3.05,3.05,0,0,1,176.4,1176.38Z"/><path class="cls-1" d="M195.7,1155.48a3.1,3.1,0,0,1-6.2-.1,3.1,3.1,0,0,1,6.2.1Z"/><path class="cls-1" d="M191,969.08a22.61,22.61,0,0,1-22.1-17.5,7,7,0,0,1-.3-1.4,1.43,1.43,0,0,1,1.3-1.5,1.31,1.31,0,0,1,1.5.9,5.73,5.73,0,0,1,.4,1.4,19.61,19.61,0,0,0,20.4,15c.8,0,1.6-.2,2.4-.2a1.36,1.36,0,0,1,1.6,1.1,1.44,1.44,0,0,1-1.2,1.8C193.7,968.78,192.3,968.88,191,969.08Z"/><path class="cls-1" d="M319.3,871.78h1.9c1,.1,1.7.6,1.6,1.7a1.5,1.5,0,0,1-1.7,1.3,13.27,13.27,0,0,0-4,.3,13.36,13.36,0,0,0-.2,26.1c.5.1,1.1.3,1.6.4.9.2,1.5.7,1.4,1.6-.1,1.1-.9,1.4-1.9,1.3-.4,0-.8-.1-1.2-.1a16.46,16.46,0,0,1,2.5-32.6Z"/><path class="cls-1" d="M639.82,352.34a21.12,21.12,0,0,1,2.6-.2c6.7-.5,12.1-3.2,15.6-9.2a28.71,28.71,0,0,0,3-7.5,75.33,75.33,0,0,0,1.9-17.1v-1.7a1.24,1.24,0,0,1,1.3-1.4c1,0,1.4.6,1.5,1.5v.7a87,87,0,0,0,.4,8.9,44.66,44.66,0,0,0,2.9,13.5c3.2,7.8,9.1,11.8,17.5,12.3.8.1,1.6.1,2.4.2a1.29,1.29,0,0,1,1.2,1.5,1.39,1.39,0,0,1-1.3,1.2,9.7,9.7,0,0,1-1.7.1c-10.2.7-15.9,5.2-19,15-1.9,5.9-2.2,12-2.4,18.2a23.48,23.48,0,0,1-.1,2.6,1.3,1.3,0,0,1-1.3,1.2,1.43,1.43,0,0,1-1.5-1.3v-1.2c0-3.3-.2-6.5-.5-9.8a42,42,0,0,0-2.9-12.6c-3-7.2-8.4-11.3-16.2-12l-3.3-.3a1.37,1.37,0,0,1-1.5-1.3A1.16,1.16,0,0,1,639.82,352.34Zm10.7,1.6.6.3c6.5,2.9,10.1,8.3,12.2,14.9.2.9,0,2.1,1.1,2.7a12.24,12.24,0,0,0,.9-2.7c2.1-6.7,5.7-12.1,12.4-15,.8-.4.9-.7.1-1.1-.1,0-.1-.1-.2-.1-7-3.1-10.6-8.9-12.6-16-.2-.6,0-1.6-.7-1.6s-.5,1-.7,1.6a39.24,39.24,0,0,1-3.4,7.9,21,21,0,0,1-8.8,7.9,10.91,10.91,0,0,0-1.1.6.31.31,0,0,1-.1.2C650.32,353.64,650.32,353.74,650.52,353.94Z"/><path class="cls-1" d="M555.11,243.25c5.8-.5,8.8-2.9,10.5-8.5a32,32,0,0,0,1.3-9.7,7.41,7.41,0,0,1,.1-2.1,1.44,1.44,0,0,1,1.6-1.1,1.23,1.23,0,0,1,1.1,1.3,28.1,28.1,0,0,0,.1,2.9,35.08,35.08,0,0,0,1.5,9.7c1.7,4.8,5,7.4,10,7.6h1c.8.1,1.6.4,1.6,1.4s-.6,1.4-1.5,1.5c-.7.1-1.4.1-2.1.2a9.67,9.67,0,0,0-8.4,6.2,20.63,20.63,0,0,0-1.8,7.4c-.1,2.1-.3,4.1-.4,6.2,0,.9-.4,1.4-1.3,1.4a1.34,1.34,0,0,1-1.4-1.3,19.27,19.27,0,0,1-.1-2.4,31.83,31.83,0,0,0-1.9-11,9.74,9.74,0,0,0-8.4-6.5l-2.6-.3a1.22,1.22,0,0,1-1.1-1.3C552.91,243.85,553.51,243.45,555.11,243.25Zm7.5,2a13.75,13.75,0,0,1,5.3,6.6c.1.4.2.9.7.9.2,0,.4-.4.5-.7a14.4,14.4,0,0,1,5.5-6.7c.6-.3.5-.7,0-1a13.28,13.28,0,0,1-5.6-7c-.3-.6-.6-.8-.9-.1a14.2,14.2,0,0,1-5.7,7.1c-.2.1-.3.4-.4.6C562.21,245.15,562.41,245.35,562.61,245.25Z"/><path class="cls-1" d="M629.25,19.2a6.15,6.15,0,0,1,1.4-.1c4.5-.3,7.4-2.6,8.8-6.9a21.39,21.39,0,0,0,1.1-5.6c.1-1.8.1-3.6.3-5.3a1.43,1.43,0,0,1,1.5-1.3,1.3,1.3,0,0,1,1.3,1.2,21.75,21.75,0,0,1,.1,2.6,27.27,27.27,0,0,0,1.5,8.9,8.89,8.89,0,0,0,8.3,6.3,9.15,9.15,0,0,1,1.7.1,1.39,1.39,0,0,1,1.1,1.4,1.22,1.22,0,0,1-1.1,1.3,7.08,7.08,0,0,0-1.4.1c-5.1.6-7.7,2.9-9,7.9a25.73,25.73,0,0,0-1,7.3,24.62,24.62,0,0,1-.2,2.6,1.32,1.32,0,0,1-2.6,0,14.77,14.77,0,0,1-.1-2.1,30.15,30.15,0,0,0-1.3-9c-1.3-3.8-3.8-6.2-7.9-6.7a14.92,14.92,0,0,1-2.1-.2c-.7-.1-1-.6-1.2-1.3C628.55,19.7,628.85,19.2,629.25,19.2ZM643,26.6a12.33,12.33,0,0,1,4.6-5.7c.4-.4.4-.8,0-1a12.21,12.21,0,0,1-4.6-5.7c-.2-.5-.6-.6-.9.1a12.43,12.43,0,0,1-4.4,5.5c-.5.3-.7.7-.1,1.1a12.85,12.85,0,0,1,4.6,5.7c0,.1.2.2.3.4C642.65,26.8,643,26.7,643,26.6Z"/></svg>